<svg width="66" height="66" viewBox="0 0 66 66" fill="none" xmlns="http://www.w3.org/2000/svg">
<g filter="url(#filter0_d_1_3263)">
<rect x="10" y="10" width="42" height="42" rx="12" fill="#C1D45D"/>
</g>
<path fill-rule="evenodd" clip-rule="evenodd" d="M22 25.5C22 22.8748 22.0281 22 25.5 22C28.9719 22 29 22.8748 29 25.5C29 28.1252 29.0111 29 25.5 29C21.9889 29 22 28.1252 22 25.5Z" stroke="white" stroke-width="1.5" stroke-linecap="round" stroke-linejoin="round"/>
<path fill-rule="evenodd" clip-rule="evenodd" d="M33 25.5C33 22.8748 33.0281 22 36.5 22C39.9719 22 40 22.8748 40 25.5C40 28.1252 40.0111 29 36.5 29C32.9889 29 33 28.1252 33 25.5Z" stroke="white" stroke-width="1.5" stroke-linecap="round" stroke-linejoin="round"/>
<path fill-rule="evenodd" clip-rule="evenodd" d="M22 36.5C22 33.8748 22.0281 33 25.5 33C28.9719 33 29 33.8748 29 36.5C29 39.1252 29.0111 40 25.5 40C21.9889 40 22 39.1252 22 36.5Z" stroke="white" stroke-width="1.5" stroke-linecap="round" stroke-linejoin="round"/>
<path fill-rule="evenodd" clip-rule="evenodd" d="M33 36.5C33 33.8748 33.0281 33 36.5 33C39.9719 33 40 33.8748 40 36.5C40 39.1252 40.0111 40 36.5 40C32.9889 40 33 39.1252 33 36.5Z" stroke="white" stroke-width="1.5" stroke-linecap="round" stroke-linejoin="round"/>
<defs>
<filter id="filter0_d_1_3263" x="0" y="0" width="66" height="66" filterUnits="userSpaceOnUse" color-interpolation-filters="sRGB">
<feFlood flood-opacity="0" result="BackgroundImageFix"/>
<feColorMatrix in="SourceAlpha" type="matrix" values="0 0 0 0 0 0 0 0 0 0 0 0 0 0 0 0 0 0 127 0" result="hardAlpha"/>
<feOffset dx="2" dy="2"/>
<feGaussianBlur stdDeviation="6"/>
<feComposite in2="hardAlpha" operator="out"/>
<feColorMatrix type="matrix" values="0 0 0 0 0.756863 0 0 0 0 0.831373 0 0 0 0 0.364706 0 0 0 0.8 0"/>
<feBlend mode="normal" in2="BackgroundImageFix" result="effect1_dropShadow_1_3263"/>
<feBlend mode="normal" in="SourceGraphic" in2="effect1_dropShadow_1_3263" result="shape"/>
</filter>
</defs>
</svg>
