<svg width="24" height="24" viewBox="0 0 24 24" fill="none" xmlns="http://www.w3.org/2000/svg">
<circle cx="12" cy="12" r="12" fill="#8F92A1" fill-opacity="0.4"/>
<path d="M17.4002 8.29129C17.4002 7.39284 16.6075 6.6001 15.709 6.6001H8.89139C7.99294 6.6001 7.2002 7.39284 7.2002 8.29129V15.1089C7.2002 16.0073 7.99294 16.8001 8.89139 16.8001H12.3266V12.9421H11.0582V11.2509H12.3266V10.5638C12.3266 9.40113 13.1722 8.39699 14.2292 8.39699H15.6033V10.0882H14.2292C14.0707 10.0882 13.9121 10.2467 13.9121 10.5638V11.2509H15.6033V12.9421H13.9121V16.8001H15.709C16.6075 16.8001 17.4002 16.0073 17.4002 15.1089V8.29129Z" fill="white"/>
</svg>
