<svg width="24" height="24" viewBox="0 0 24 24" fill="none" xmlns="http://www.w3.org/2000/svg">
<path d="M23.6383 14.9029C22.0356 21.3315 15.5244 25.2438 9.09503 23.6407C2.66833 22.0381 -1.24401 15.5265 0.359382 9.09837C1.96137 2.66903 8.47253 -1.24361 14.8999 0.359081C21.3289 1.96177 25.241 8.47405 23.6381 14.903L23.6382 14.9029H23.6383Z" fill="#F3BA2F"/>
<path fill-rule="evenodd" clip-rule="evenodd" d="M12 7.616L8.89266 10.7233L8.89272 10.7232L7.08479 8.9152L12 4L16.9168 8.91667L15.1088 10.7247L12 7.616ZM5.80806 10.1917L4 12L5.80793 13.8077L7.616 11.9996L5.80806 10.1917ZM8.89268 13.2769L12 16.384L15.1087 13.2754L16.9177 15.0824L16.9168 15.0834L12 20L7.0848 15.0848L7.08224 15.0822L8.89268 13.2769ZM18.1921 10.1927L16.384 12.0008L18.192 13.8087L20 12.0006L18.1921 10.1927Z" fill="white"/>
<path d="M13.8334 11.9991H13.8341L11.9996 10.1644L10.6437 11.52L10.4879 11.6759L10.1666 11.9972L10.1641 11.9997L10.1666 12.0023L11.9996 13.8356L13.8343 12.001L13.8352 11.9999L13.8335 11.9991" fill="white"/>
</svg>
