<svg width="24" height="24" viewBox="0 0 24 24" fill="none" xmlns="http://www.w3.org/2000/svg">
<path d="M9.31883 6.44186L9.409 6.46362L9.46875 6.39267L10.5835 5.0691C10.5835 5.06909 10.5835 5.06907 10.5835 5.06906C11.9342 3.47262 13.7083 2.29011 15.7015 1.65768C17.6947 1.02528 19.8259 0.968636 21.8499 1.49426C21.9954 1.53264 22.1282 1.60893 22.2346 1.71535C22.3411 1.82183 22.4174 1.95465 22.4557 2.10026C22.9874 4.12477 22.9333 6.25863 22.2997 8.2536C21.6661 10.2486 20.4791 12.0227 18.8768 13.3696L18.8767 13.3694L18.8718 13.374L17.6347 14.5115L17.5696 14.5713L17.5905 14.6572L18.2591 17.416C18.4021 18.0104 18.3525 18.6348 18.1176 19.1993C17.883 19.763 17.4756 20.2377 16.9541 20.5551L13.051 22.7566C13.051 22.7566 13.051 22.7566 13.051 22.7566C12.9349 22.822 12.805 22.8593 12.6718 22.8653C12.5386 22.8713 12.4059 22.8459 12.2844 22.7912C12.1628 22.7364 12.0558 22.6539 11.972 22.5502C11.8883 22.4465 11.8301 22.3245 11.8021 22.1942C11.8021 22.1942 11.8021 22.1942 11.8021 22.1942L11.1584 19.191L11.1241 19.0309L10.9676 19.0791C10.1666 19.3257 9.34206 19.4879 8.50734 19.563C8.48129 19.5651 8.45688 19.5663 8.43326 19.5663C8.32165 19.5663 8.21114 19.5444 8.10803 19.5016C8.00493 19.4589 7.91126 19.3963 7.83237 19.3173L7.83233 19.3173L4.73223 16.2172L4.73222 16.2172C4.64014 16.1251 4.57044 16.0131 4.52849 15.8898C4.48656 15.7666 4.47347 15.6355 4.49022 15.5064C4.59802 14.6888 4.7818 13.883 5.03918 13.0996L5.09125 12.941L4.92811 12.9061L1.85536 12.2474L1.8553 12.2474C1.72493 12.2195 1.60295 12.1613 1.49921 12.0776C1.39548 11.9938 1.3129 11.8868 1.25816 11.7653C1.20341 11.6437 1.17803 11.511 1.18408 11.3778C1.19012 11.2446 1.22741 11.1147 1.29294 10.9986L1.29295 10.9986L3.49314 7.09865L3.49325 7.09871L3.49603 7.09328C3.78502 6.5285 4.26862 6.08737 4.8575 5.85135C5.44638 5.61533 6.10078 5.60036 6.69983 5.80921L6.70683 5.81164L6.71403 5.81338L9.31883 6.44186ZM3.44131 10.6495L3.34116 10.8271L3.54055 10.8699L5.64461 11.3207L5.75688 11.3448L5.80941 11.2427C6.2444 10.3973 6.7712 9.60235 7.38028 8.87232C7.38036 8.87222 7.38045 8.87212 7.38053 8.87202L8.03009 8.10076L8.18618 7.91543L7.95068 7.85836L6.24599 7.44524C6.02168 7.34912 5.76929 7.3405 5.5387 7.42144C5.30455 7.50362 5.11055 7.67194 4.99615 7.89208L3.44131 10.6495ZM16.1159 19.076L16.1162 19.0766L16.1277 19.0686C16.3271 18.9301 16.4793 18.7342 16.5642 18.5068C16.649 18.2798 16.6624 18.0323 16.6028 17.7974C16.6027 17.7971 16.6027 17.7968 16.6026 17.7965L16.1996 16.1335L16.1396 15.8862L15.9523 16.0585L15.21 16.7409C14.4884 17.3732 13.6885 17.91 12.8299 18.3382L12.7258 18.3901L12.7502 18.5038L13.1797 20.5085L13.2224 20.7079L13.4001 20.6077L16.1159 19.076ZM14.07 15.4797L14.07 15.4798L14.0734 15.4767L17.7553 12.0929C19.0399 11.0197 20.0135 9.62195 20.5748 8.04495C21.1365 6.46682 21.2648 4.76696 20.9463 3.12241L20.9269 3.02252L20.827 3.00355C19.1877 2.69261 17.4953 2.82227 15.9226 3.3793C14.3498 3.93632 12.9531 4.90076 11.875 6.17412L11.8747 6.17442L10.4398 7.8781L10.4396 7.8779L10.4339 7.88551C10.4136 7.91298 10.3916 7.93914 10.368 7.96384L10.3677 7.96363L10.3617 7.97087L8.68331 9.96355L8.68307 9.96384C7.41676 11.4752 6.5766 13.2969 6.24925 15.2413L6.2364 15.3175L6.2911 15.3722L8.6954 17.7765L8.74734 17.8285L8.82023 17.8193C10.7626 17.5744 12.5892 16.7604 14.07 15.4797ZM16.7334 5.96629V5.96627C16.9107 5.96626 17.0863 6.00116 17.2501 6.069C17.4139 6.13684 17.5627 6.23628 17.6881 6.36164C17.8134 6.48701 17.9129 6.63583 17.9807 6.79963C18.0485 6.96343 18.0835 7.13898 18.0834 7.31628C18.0834 7.58329 18.0043 7.8443 17.8559 8.06631C17.7076 8.28831 17.4967 8.46135 17.2501 8.56352C17.0034 8.6657 16.7319 8.69244 16.4701 8.64035C16.2082 8.58826 15.9677 8.45968 15.7788 8.27088C15.59 8.08208 15.4615 7.84153 15.4094 7.57966C15.3573 7.31778 15.384 7.04634 15.4862 6.79966C15.5884 6.55298 15.7614 6.34214 15.9834 6.1938C16.2054 6.04546 16.4664 5.96629 16.7334 5.96629Z" fill="#8F92A1" stroke="white" stroke-width="0.3"/>
</svg>
