<svg width="397" height="98" viewBox="0 0 397 98" fill="none" xmlns="http://www.w3.org/2000/svg">
<path d="M152.941 4.9888C102.856 3.61019 55.2674 14.6349 25.1425 28.2235C0.651146 39.297 -12.2451 56.5472 17.1428 71.1171C42.4871 83.6955 86.3421 89.2831 122.022 92.7751C157.822 96.2912 193.864 97.4053 229.351 97.2091C289.355 96.8713 400.236 92.7312 396.248 60.7693C393.989 42.4636 355.748 22.7613 317.081 12.3376C270.443 -0.231388 215.44 -1.35358 166.182 1.07842C116.198 3.55683 68.7112 10.6905 37.6394 25.8061C12.508 38.0296 -7.10524 58.9627 24.7838 75.1652C52.9826 89.4957 105.956 92.724 144.59 92.9313C191.417 93.183 238.072 92.4048 282.529 88.4871C323.309 84.8778 366.474 78.0886 386.449 63.0984C400.666 52.4605 398.939 39.966 373.043 30.1981C346.521 20.1812 307.891 15.7579 275.04 12.6002C238.956 9.14447 203.662 7.66721 167.968 7.94485C159.445 8.02148 150.884 8.07957 142.364 8.12452C138.547 8.13712 140.032 10.5285 143.81 10.5132C167.601 10.402 191.142 9.82846 215.217 10.8661C232.12 11.6101 249.079 12.7239 265.976 14.1675C301.047 17.1571 341.239 21.654 369.946 32.0413C404.456 44.523 387.57 61.965 362.72 71.2165C328.761 83.862 275.647 87.4812 228.553 89.3912C183.878 91.1941 134.053 92.5059 88.0216 87.6146C65.7237 85.2492 42.8071 80.742 27.6205 73.0181C10.1039 64.1026 12.5821 52.9899 19.7353 44.0386C37.3277 22.094 87.5624 9.9593 142.161 5.18339C194.698 0.602292 255.905 0.297953 308.453 12.789C334.628 19.0119 355.45 28.3574 370.858 38.7532C383.114 47.0428 392.33 56.3204 389.992 65.3583C385.977 80.7902 344.745 87.519 312.017 90.8767C273.745 94.8145 231.841 95.4363 190.926 94.5022C152.74 93.6091 113.29 90.6102 76.1801 84.4919C55.48 81.073 34.7119 76.2813 20.0963 69.0256C3.73135 60.9039 3.12666 50.8239 10.6412 42.4697C20.6765 31.2947 44.5774 23.0133 68.7296 16.9603C92.5965 10.9676 122.305 6.51498 152.822 7.35131C156.591 7.46271 156.791 5.08977 152.941 4.9888Z" fill="#C1D45D"/>
</svg>
