<svg width="24" height="24" viewBox="0 0 24 24" fill="none" xmlns="http://www.w3.org/2000/svg">
<circle cx="12" cy="12" r="12" fill="#8F92A1" fill-opacity="0.4"/>
<path d="M5.61081 12.2244L8.36967 13.2531L9.44515 16.7134C9.49191 16.9472 9.77247 16.9939 9.95951 16.8537L11.5026 15.5911C11.6429 15.4509 11.8767 15.4509 12.0637 15.5911L14.8226 17.6018C15.0096 17.7421 15.2902 17.6486 15.3369 17.4148L17.3944 7.59514C17.4411 7.36134 17.2073 7.12755 16.9735 7.22107L5.61081 11.6165C5.33025 11.71 5.33025 12.1309 5.61081 12.2244ZM9.30487 12.7388L14.729 9.41879C14.8226 9.37203 14.9161 9.51231 14.8226 9.55907L10.3804 13.7207C10.2401 13.861 10.0998 14.048 10.0998 14.2818L9.95951 15.4041C9.95951 15.5444 9.72571 15.5911 9.67895 15.4041L9.11782 13.3466C8.97754 13.1128 9.07107 12.8323 9.30487 12.7388Z" fill="white"/>
</svg>
