<svg width="660" height="213" viewBox="0 0 660 213" fill="none" xmlns="http://www.w3.org/2000/svg">
<path d="M0 91.5505L14.9691 93.4771L18.3711 91.5505L19.0515 89.6239H25.8557L27.2165 91.5505H48.9897L50.3505 89.6239H55.7938L57.1546 91.5505L59.8763 92.5138L61.2371 89.6239H62.5979L63.9588 88.6605L64.6392 87.6972H65.3196V76.1376H68.0412L69.4021 74.211H72.1237L74.8454 78.0642H77.567L78.9278 77.1009L84.3711 76.1376L85.0515 78.0642H88.4536L91.1753 74.211H99.3402L100.701 76.1376H103.423L107.505 72.2844H115.67L117.031 69.3945L119.753 64.578L121.113 66.5046H123.835L125.196 64.578H137.443L141.526 60.7248L142.887 62.6514H146.289L152.412 54.945H153.773L155.134 58.7982L156.495 60.7248H157.856L159.216 58.7982H160.577L161.938 60.7248L163.299 62.6514H178.268H179.629L180.99 60.7248L182.351 62.6514L184.392 64.578L190.515 56.8716H200.041L201.402 55.9083V47.2385L202.763 45.3119H204.124L205.485 47.2385H208.206L209.567 49.1651H213.649V51.0917H217.732L219.093 53.0183H221.134V49.1651L223.175 47.2385H224.536L229.979 53.0183H231.34L232.701 51.0917L234.062 50.1284L240.186 56.8716L242.907 54.945H250.392L251.753 56.8716V58.7982L253.113 60.7248L254.474 58.7982L255.835 56.8716H257.196L259.918 60.7248H261.278L263.32 58.7982L266.041 56.8716H268.082L269.443 54.945H274.887L277.608 49.1651L278.969 47.2385L280.33 49.1651H285.773L289.175 46.2752L289.856 45.3119L295.299 53.0183H299.381L300.742 52.055L302.103 51.0917L303.464 53.0183H304.825L306.186 54.945L307.546 56.8716H317.753L319.113 58.7982H320.474L321.155 56.8716H327.959V51.0917L329.32 49.1651H333.402V47.2385L334.763 46.2752L336.124 45.3119L337.485 47.2385L340.206 45.3119L345.649 49.1651H351.773L353.814 48.2018L357.216 47.2385L357.897 43.3853H364.021L366.062 41.4587H367.423L368.783 44.3486L370.144 46.2752L371.505 43.3853L375.588 39.5321H378.99L381.031 41.4587H387.835V39.5321H391.918L393.278 41.4587H398.041L399.402 39.5321H402.804L403.485 41.4587H406.887L408.247 39.5321H410.969L413.691 43.3853H415.052L416.412 41.4587H420.495L421.175 43.3853H421.856L422.536 41.4587H428.66L431.381 47.2385H432.742L434.103 45.3119L439.546 41.4587H444.309L444.99 44.3486L447.711 47.2385L451.794 48.2018L457.918 47.2385L460.639 45.3119L462.68 43.3853V39.5321L468.804 38.5688L470.165 37.6055H472.887V39.5321L474.928 38.5688L477.649 36.6422V39.9044C477.876 40.7436 478.466 42.422 479.01 42.422C479.555 42.422 480.598 43.0642 481.052 43.3853L483.093 44.3486L485.134 43.3853L492.619 40.4954L494.66 34.7156L497.381 37.6055L500.103 36.6422L501.464 32.789L502.825 27.9725V27.0092L504.186 31.8257L504.866 32.789L507.588 31.8257V30.8624L506.907 29.8991C506.907 29.2569 506.907 27.7798 506.907 27.0092C506.907 26.0459 506.227 24.1193 506.907 24.1193C507.588 24.1193 508.252 26.0459 508.6 27.0092C508.879 27.7798 510.309 27.3303 510.99 27.0092L513.031 24.1193L513.711 23.156L517.113 22.1927V12.5596H519.155L519.835 10.633H521.196V5.81651L522.557 1H524.598L528 6.77982L531.402 2.92661H533.443L534.804 6.77982H536.165V3.88991L537.526 2.92661L538.887 3.88991L539.567 6.77982L540.247 176.321L541.608 179.211V210.037L547.732 209.073L551.134 205.22L553.175 207.147H559.979L560.66 205.22H564.742L565.423 207.147H568.825L570.186 209.073L571.546 211L581.753 210.037L582.433 90.5872L588.557 89.6239L600.124 81.9174C600.577 81.5963 601.485 81.1468 601.485 81.9174C601.485 82.6881 601.485 87.3761 601.485 89.6239C602.165 89.6239 603.662 89.6239 604.206 89.6239C604.75 89.6239 604.887 90.9083 604.887 91.5505H609.649V93.4771H613.732L615.093 95.4037H616.454L617.134 99.2569H623.258L624.619 97.3303H629.381L630.742 95.4037H632.783L634.144 97.3303L635.505 100.22H636.04H637.546L639.588 99.2569L642.309 97.3303L644.35 96.367L645.031 93.4771V69.3945L649.794 68.4312L650.474 66.5046V56.8716L653.196 54.945H659.32L660 53.0183" stroke="#00BE91" stroke-width="2"/>
</svg>
