<svg width="106" height="34" viewBox="0 0 106 34" fill="none" xmlns="http://www.w3.org/2000/svg">
<g filter="url(#filter0_b_1_3196)">
<rect width="106" height="34" rx="12" fill="#F3BA2F" fill-opacity="0.1"/>
</g>
<path d="M25.3214 18.332V12.13H27.1274V17.66C27.1274 18.6773 27.2907 19.4193 27.6174 19.886C27.9441 20.3433 28.5927 20.572 29.5634 20.572C30.5341 20.572 31.1827 20.3433 31.5094 19.886C31.8361 19.4193 31.9994 18.6773 31.9994 17.66V12.13H33.8054V18.332C33.8054 19.5733 33.4461 20.5207 32.7274 21.174C32.0181 21.818 30.9634 22.14 29.5634 22.14C28.1541 22.14 27.0947 21.818 26.3854 21.174C25.6761 20.5207 25.3214 19.5733 25.3214 18.332ZM35.3495 14.972H37.1555V15.644L36.8335 16.722H37.2955C37.7155 15.462 38.6488 14.832 40.0955 14.832C41.0755 14.832 41.8455 15.182 42.4055 15.882C42.9748 16.5727 43.2595 17.4453 43.2595 18.5C43.2595 19.5453 42.9748 20.4133 42.4055 21.104C41.8455 21.7947 41.0755 22.14 40.0955 22.14C38.6488 22.14 37.7155 21.5147 37.2955 20.264H36.8335L37.1555 21.328V24.618H35.3495V14.972ZM37.1555 18.5C37.1555 19.2 37.3468 19.7227 37.7295 20.068C38.1215 20.404 38.6535 20.572 39.3255 20.572C39.9975 20.572 40.5201 20.404 40.8935 20.068C41.2668 19.7227 41.4535 19.2 41.4535 18.5C41.4535 17.7907 41.2668 17.2633 40.8935 16.918C40.5201 16.5727 39.9975 16.4 39.3255 16.4C38.6535 16.4 38.1215 16.5727 37.7295 16.918C37.3468 17.2633 37.1555 17.7907 37.1555 18.5ZM44.1886 18.486C44.1886 17.3847 44.5293 16.5027 45.2106 15.84C45.8919 15.168 46.7973 14.832 47.9266 14.832C48.8599 14.832 49.6719 15.0887 50.3626 15.602C51.0626 16.106 51.4453 16.834 51.5106 17.786H49.7046C49.6393 17.338 49.4479 16.9973 49.1306 16.764C48.8133 16.5213 48.4119 16.4 47.9266 16.4C47.3013 16.4 46.8206 16.5913 46.4846 16.974C46.1579 17.3473 45.9946 17.8513 45.9946 18.486C45.9946 19.1207 46.1579 19.6293 46.4846 20.012C46.8206 20.3853 47.3013 20.572 47.9266 20.572C48.4119 20.572 48.8133 20.4553 49.1306 20.222C49.4479 19.9793 49.6393 19.634 49.7046 19.186H51.5106C51.4453 20.138 51.0626 20.8707 50.3626 21.384C49.6719 21.888 48.8599 22.14 47.9266 22.14C46.7973 22.14 45.8919 21.8087 45.2106 21.146C44.5293 20.4833 44.1886 19.5967 44.1886 18.486ZM53.5244 21.16C52.8057 20.5067 52.4464 19.6153 52.4464 18.486C52.4464 17.3567 52.8057 16.4653 53.5244 15.812C54.2431 15.1587 55.1717 14.832 56.3104 14.832C57.4397 14.832 58.3637 15.1587 59.0824 15.812C59.8011 16.4653 60.1604 17.3567 60.1604 18.486C60.1604 19.6153 59.8011 20.5067 59.0824 21.16C58.3637 21.8133 57.4397 22.14 56.3104 22.14C55.1717 22.14 54.2431 21.8133 53.5244 21.16ZM54.7984 16.96C54.4344 17.3333 54.2524 17.842 54.2524 18.486C54.2524 19.13 54.4344 19.6387 54.7984 20.012C55.1624 20.3853 55.6664 20.572 56.3104 20.572C56.9544 20.572 57.4584 20.3853 57.8224 20.012C58.1864 19.6387 58.3684 19.13 58.3684 18.486C58.3684 17.842 58.1864 17.3333 57.8224 16.96C57.4584 16.5867 56.9544 16.4 56.3104 16.4C55.6664 16.4 55.1624 16.5867 54.7984 16.96ZM70.4947 14.832C71.2787 14.832 71.8527 15.126 72.2167 15.714C72.5807 16.302 72.7627 17.0767 72.7627 18.038V22H70.9567V18.234C70.9567 17.5433 70.8727 17.0673 70.7047 16.806C70.5367 16.5353 70.2194 16.4 69.7527 16.4C68.5674 16.4 67.9747 17.3613 67.9747 19.284V22H66.1687V18.234C66.1687 17.5433 66.0847 17.0673 65.9167 16.806C65.7487 16.5353 65.4314 16.4 64.9647 16.4C63.7794 16.4 63.1867 17.3613 63.1867 19.284V22H61.3807V14.972H63.1867V15.882L62.8647 16.946H63.3267C63.644 15.5367 64.4374 14.832 65.7067 14.832C66.8734 14.832 67.5687 15.5367 67.7927 16.946H68.1287C68.446 15.5367 69.2347 14.832 70.4947 14.832ZM77.3712 13.838C77.1566 14.0247 76.8672 14.118 76.5032 14.118C76.1392 14.118 75.8499 14.0247 75.6352 13.838C75.4206 13.642 75.3132 13.3807 75.3132 13.054C75.3132 12.7273 75.4206 12.4707 75.6352 12.284C75.8499 12.088 76.1392 11.99 76.5032 11.99C76.8579 11.99 77.1472 12.088 77.3712 12.284C77.5952 12.48 77.7072 12.7367 77.7072 13.054C77.7072 13.3807 77.5952 13.642 77.3712 13.838ZM73.8292 22V20.432H75.8172V16.442L74.2072 16.54V14.972L76.4472 14.832C76.8019 14.8133 77.0726 14.8973 77.2592 15.084C77.4459 15.2707 77.5392 15.5367 77.5392 15.882V20.432H79.5272V22H73.8292ZM84.6214 16.4C83.9307 16.4 83.3894 16.6333 82.9974 17.1C82.6054 17.5573 82.4094 18.2573 82.4094 19.2V22H80.6034V14.972H82.4094V15.966L82.0874 17.044H82.5494C82.6987 16.3813 82.9974 15.8493 83.4454 15.448C83.9027 15.0373 84.4954 14.832 85.2234 14.832C86.0914 14.832 86.768 15.1073 87.2534 15.658C87.748 16.1993 87.9954 16.9833 87.9954 18.01V22H86.2034V18.276C86.2034 17.604 86.0774 17.1233 85.8254 16.834C85.5827 16.5447 85.1814 16.4 84.6214 16.4ZM97.1533 14.972H97.7693V16.54H97.2513C96.934 16.54 96.682 16.6053 96.4953 16.736C96.7007 16.9973 96.8033 17.352 96.8033 17.8C96.8033 18.472 96.528 19.0413 95.9773 19.508C95.436 19.9747 94.638 20.3947 93.5833 20.768C94.162 20.7213 94.6753 20.7353 95.1233 20.81C95.5713 20.8847 95.9493 21.062 96.2573 21.342C96.5653 21.622 96.7193 22 96.7193 22.476C96.7193 22.8027 96.6587 23.0873 96.5373 23.33C96.4253 23.5727 96.2247 23.7733 95.9353 23.932C95.6553 24.1 95.338 24.2353 94.9833 24.338C94.6287 24.4407 94.1573 24.5153 93.5693 24.562C92.9813 24.618 92.3793 24.6553 91.7633 24.674C91.1473 24.6927 90.382 24.702 89.4673 24.702V23.134C90.27 23.134 90.9093 23.1293 91.3853 23.12C91.8707 23.12 92.342 23.106 92.7993 23.078C93.2567 23.05 93.602 23.0173 93.8353 22.98C94.0687 22.9427 94.274 22.882 94.4513 22.798C94.638 22.7233 94.7593 22.6347 94.8153 22.532C94.8807 22.4293 94.9133 22.3033 94.9133 22.154C94.9133 21.958 94.848 21.7993 94.7173 21.678C94.5867 21.5567 94.3813 21.482 94.1013 21.454C93.8307 21.426 93.5647 21.412 93.3033 21.412C93.042 21.412 92.692 21.4493 92.2533 21.524C91.824 21.5893 91.4787 21.65 91.2173 21.706C90.9653 21.7527 90.6153 21.8227 90.1673 21.916L89.9293 20.838C91.656 20.5673 92.9673 20.3107 93.8633 20.068V19.606C93.2473 19.802 92.65 19.914 92.0713 19.942C91.4927 19.9607 90.97 19.9 90.5033 19.76C90.046 19.6107 89.6773 19.354 89.3973 18.99C89.1267 18.6167 88.9913 18.1593 88.9913 17.618C88.9913 16.7127 89.346 16.022 90.0553 15.546C90.774 15.07 91.6933 14.832 92.8133 14.832C93.896 14.832 94.7733 15.0747 95.4453 15.56C95.856 15.168 96.4253 14.972 97.1533 14.972ZM92.9113 19.018C94.302 19.018 94.9973 18.584 94.9973 17.716C94.9973 16.8387 94.302 16.4 92.9113 16.4C91.502 16.4 90.7973 16.8387 90.7973 17.716C90.7973 18.584 91.502 19.018 92.9113 19.018Z" fill="#F3BA2F"/>
<circle cx="12" cy="18" r="4" fill="#F3BA2F"/>
<defs>
<filter id="filter0_b_1_3196" x="-240" y="-240" width="586" height="514" filterUnits="userSpaceOnUse" color-interpolation-filters="sRGB">
<feFlood flood-opacity="0" result="BackgroundImageFix"/>
<feGaussianBlur in="BackgroundImageFix" stdDeviation="120"/>
<feComposite in2="SourceAlpha" operator="in" result="effect1_backgroundBlur_1_3196"/>
<feBlend mode="normal" in="SourceGraphic" in2="effect1_backgroundBlur_1_3196" result="shape"/>
</filter>
</defs>
</svg>
