<svg width="24" height="24" viewBox="0 0 24 24" fill="none" xmlns="http://www.w3.org/2000/svg">
<path d="M24 12C24 18.6274 18.6274 24 12 24C5.37258 24 0 18.6274 0 12C0 5.37258 5.37258 0 12 0C18.6274 0 24 5.37258 24 12Z" fill="#8F92A1" fill-opacity="0.4"/>
<path d="M16.1345 6.6001H7.86475C7.16738 6.6001 6.59961 7.1521 6.59961 7.8361V15.9481C6.59961 16.6321 7.16738 17.1841 7.86475 17.1841H14.8632L14.5361 16.0741L15.326 16.7881L16.0728 17.4601L17.3996 18.6001V7.8361C17.3996 7.1521 16.8318 6.6001 16.1345 6.6001ZM13.7523 14.4361C13.7523 14.4361 13.5301 14.1781 13.345 13.9501C14.1534 13.7281 14.462 13.2361 14.462 13.2361C14.209 13.3981 13.9683 13.5121 13.7523 13.5901C13.4437 13.7161 13.1475 13.8001 12.8574 13.8481C12.265 13.9561 11.7219 13.9261 11.259 13.8421C10.9073 13.7761 10.6049 13.6801 10.3518 13.5841C10.2099 13.5301 10.0556 13.4641 9.90132 13.3801C9.88281 13.3681 9.8643 13.3621 9.84578 13.3501C9.83344 13.3441 9.82727 13.3381 9.8211 13.3321C9.71001 13.2721 9.6483 13.2301 9.6483 13.2301C9.6483 13.2301 9.94452 13.7101 10.7283 13.9381C10.5432 14.1661 10.3148 14.4361 10.3148 14.4361C8.95092 14.3941 8.43252 13.5241 8.43252 13.5241C8.43252 11.5921 9.32121 10.0261 9.32121 10.0261C10.2099 9.3781 11.0554 9.3961 11.0554 9.3961L11.1171 9.4681C10.0062 9.7801 9.49401 10.2541 9.49401 10.2541C9.49401 10.2541 9.62978 10.1821 9.85812 10.0801C10.5185 9.7981 11.043 9.7201 11.259 9.7021C11.2961 9.6961 11.3269 9.6901 11.364 9.6901C11.7404 9.6421 12.1662 9.6301 12.6106 9.6781C13.1969 9.7441 13.8264 9.9121 14.4682 10.2541C14.4682 10.2541 13.9806 9.8041 12.9315 9.4921L13.0179 9.3961C13.0179 9.3961 13.8634 9.3781 14.7521 10.0261C14.7521 10.0261 15.6408 11.5921 15.6408 13.5241C15.6408 13.5241 15.1162 14.3941 13.7523 14.4361ZM10.8826 11.6341C10.5308 11.6341 10.2531 11.9341 10.2531 12.3001C10.2531 12.6661 10.537 12.9661 10.8826 12.9661C11.2344 12.9661 11.5121 12.6661 11.5121 12.3001C11.5182 11.9341 11.2344 11.6341 10.8826 11.6341ZM13.1352 11.6341C12.7834 11.6341 12.5057 11.9341 12.5057 12.3001C12.5057 12.6661 12.7896 12.9661 13.1352 12.9661C13.4869 12.9661 13.7646 12.6661 13.7646 12.3001C13.7646 11.9341 13.4869 11.6341 13.1352 11.6341Z" fill="white"/>
</svg>
