<svg width="24" height="24" viewBox="0 0 24 24" fill="none" xmlns="http://www.w3.org/2000/svg">
<path d="M3.85 20V20.15H4H21C21.2254 20.15 21.4416 20.2396 21.601 20.399C21.7604 20.5584 21.85 20.7746 21.85 21C21.85 21.2254 21.7604 21.4416 21.601 21.601C21.4416 21.7604 21.2254 21.85 21 21.85H3C2.77457 21.85 2.55836 21.7604 2.39896 21.601C2.23955 21.4416 2.15 21.2254 2.15 21V3C2.15 2.77457 2.23955 2.55837 2.39896 2.39896C2.55837 2.23955 2.77457 2.15 3 2.15C3.22543 2.15 3.44163 2.23955 3.60104 2.39896C3.76045 2.55837 3.85 2.77457 3.85 3V8.63V8.99213L4.10607 8.73607L8.38575 4.45638C8.3858 4.45633 8.38585 4.45628 8.3859 4.45623C8.54515 4.29801 8.76051 4.20921 8.985 4.20921C9.20945 4.20921 9.42478 4.29798 9.58402 4.45615C9.5841 4.45623 9.58417 4.4563 9.58425 4.45638L12.3737 7.25588L12.4798 7.36232L12.5861 7.25607L17.3858 2.45638C17.3858 2.45635 17.3858 2.45632 17.3858 2.45628C17.5451 2.29803 17.7605 2.20921 17.985 2.20921C18.2096 2.20921 18.425 2.29807 18.5843 2.45638L18.5843 2.45643L21.4943 5.34643L21.6 5.24L21.4943 5.34644C21.6544 5.50539 21.7448 5.72141 21.7456 5.94699C21.7464 6.17258 21.6575 6.38924 21.4986 6.54931C21.3396 6.70938 21.1236 6.79976 20.898 6.80056C20.6725 6.80135 20.456 6.7126 20.2959 6.55381C20.2959 6.55373 20.2958 6.55364 20.2957 6.55356L18.1061 4.36393L18 4.25787L17.8939 4.36393L13.1042 9.15362C13.1042 9.15367 13.1041 9.15372 13.1041 9.15377C12.9449 9.31199 12.7295 9.40079 12.505 9.40079C12.2805 9.40079 12.0651 9.31199 11.9059 9.15377C11.9059 9.15372 11.9058 9.15367 11.9058 9.15362L9.10607 6.35393L9 6.24787L8.89393 6.35393L3.89393 11.3539L3.85 11.3979V11.46V16.63V16.9915L4.10594 16.7362L8.40575 12.4464C8.56501 12.2881 8.78044 12.1992 9.005 12.1992C9.22947 12.1992 9.44482 12.288 9.60406 12.4462C9.60412 12.4463 9.60419 12.4463 9.60425 12.4464L13.3938 16.2459L13.4999 16.3523L13.6061 16.2461L20.4057 9.44638C20.4058 9.44628 20.4059 9.44618 20.406 9.44609C20.5653 9.28796 20.7806 9.19921 21.005 9.19921C21.2296 9.19921 21.445 9.28807 21.6042 9.44638L21.6044 9.4465C21.684 9.52552 21.7473 9.61953 21.7904 9.72311C21.8336 9.82669 21.8558 9.93779 21.8558 10.05C21.8558 10.1622 21.8336 10.2733 21.7904 10.3769C21.7473 10.4805 21.684 10.5745 21.6044 10.6535L21.6039 10.6539L14.1042 18.1536C14.1042 18.1537 14.1041 18.1537 14.1041 18.1538C13.9449 18.312 13.7295 18.4008 13.505 18.4008C13.2805 18.4008 13.0651 18.312 12.9059 18.1538C12.9059 18.1537 12.9058 18.1537 12.9058 18.1536L9.10607 14.3539L9 14.2479L8.89393 14.3539L3.89393 19.3539L3.85 19.3979V19.46V20Z" fill="white" stroke="white" stroke-width="0.3"/>
</svg>
