<svg width="24" height="24" viewBox="0 0 24 24" fill="none" xmlns="http://www.w3.org/2000/svg">
<path d="M9.31932 6.44186L9.40948 6.46362L9.46923 6.39267L10.5839 5.0691C10.584 5.06909 10.584 5.06907 10.584 5.06906C11.9347 3.47262 13.7088 2.29011 15.702 1.65768C17.6952 1.02528 19.8264 0.968636 21.8504 1.49426C21.9959 1.53264 22.1286 1.60893 22.2351 1.71535C22.3415 1.82183 22.4179 1.95465 22.4562 2.10026C22.9878 4.12477 22.9337 6.25863 22.3002 8.2536C21.6666 10.2486 20.4796 12.0227 18.8773 13.3696L18.8772 13.3694L18.8723 13.374L17.6352 14.5115L17.5701 14.5713L17.591 14.6572L18.2596 17.416C18.4025 18.0104 18.353 18.6348 18.1181 19.1993C17.8835 19.763 17.4761 20.2377 16.9546 20.5551L13.0515 22.7566C13.0515 22.7566 13.0515 22.7566 13.0515 22.7566C12.9353 22.822 12.8055 22.8593 12.6723 22.8653C12.5391 22.8713 12.4064 22.8459 12.2848 22.7912C12.1633 22.7364 12.0563 22.6539 11.9725 22.5502C11.8888 22.4465 11.8306 22.3245 11.8026 22.1942C11.8026 22.1942 11.8026 22.1942 11.8026 22.1942L11.1589 19.191L11.1246 19.0309L10.9681 19.0791C10.1671 19.3257 9.34254 19.4879 8.50782 19.563C8.48178 19.5651 8.45737 19.5663 8.43375 19.5663C8.32214 19.5663 8.21163 19.5444 8.10852 19.5016C8.00542 19.4589 7.91175 19.3963 7.83286 19.3173L7.83282 19.3173L4.73272 16.2172L4.73271 16.2172C4.64063 16.1251 4.57093 16.0131 4.52897 15.8898C4.48704 15.7666 4.47395 15.6355 4.49071 15.5064C4.59851 14.6888 4.78229 13.883 5.03967 13.0996L5.09174 12.941L4.9286 12.9061L1.85585 12.2474L1.85579 12.2474C1.72542 12.2195 1.60343 12.1613 1.4997 12.0776C1.39596 11.9938 1.31339 11.8868 1.25864 11.7653C1.2039 11.6437 1.17852 11.511 1.18456 11.3778C1.19061 11.2446 1.2279 11.1147 1.29343 10.9986L1.29344 10.9986L3.49363 7.09865L3.49373 7.09871L3.49652 7.09328C3.78551 6.5285 4.2691 6.08737 4.85799 5.85135C5.44687 5.61533 6.10126 5.60036 6.70032 5.80921L6.70732 5.81164L6.71452 5.81338L9.31932 6.44186ZM3.4418 10.6495L3.34165 10.8271L3.54103 10.8699L5.64509 11.3207L5.75737 11.3448L5.8099 11.2427C6.24489 10.3973 6.77169 9.60235 7.38077 8.87232C7.38085 8.87222 7.38094 8.87212 7.38102 8.87202L8.03057 8.10076L8.18666 7.91543L7.95117 7.85836L6.24648 7.44524C6.02217 7.34912 5.76978 7.3405 5.53919 7.42144C5.30503 7.50362 5.11104 7.67194 4.99664 7.89208L3.4418 10.6495ZM16.1164 19.076L16.1167 19.0766L16.1282 19.0686C16.3275 18.9301 16.4798 18.7342 16.5647 18.5068C16.6494 18.2798 16.6629 18.0323 16.6033 17.7974C16.6032 17.7971 16.6032 17.7968 16.6031 17.7965L16.2001 16.1335L16.1401 15.8862L15.9527 16.0585L15.2105 16.7409C14.4889 17.3732 13.689 17.91 12.8304 18.3382L12.7263 18.3901L12.7507 18.5038L13.1802 20.5085L13.2229 20.7079L13.4005 20.6077L16.1164 19.076ZM14.0705 15.4797L14.0705 15.4798L14.0739 15.4767L17.7558 12.0929C19.0404 11.0197 20.014 9.62195 20.5753 8.04495C21.137 6.46682 21.2653 4.76696 20.9468 3.12241L20.9274 3.02252L20.8275 3.00355C19.1882 2.69261 17.4958 2.82227 15.9231 3.3793C14.3503 3.93632 12.9536 4.90076 11.8755 6.17412L11.8752 6.17442L10.4403 7.8781L10.44 7.8779L10.4344 7.88551C10.4141 7.91298 10.3921 7.93914 10.3684 7.96384L10.3682 7.96363L10.3621 7.97087L8.6838 9.96355L8.68356 9.96384C7.41725 11.4752 6.57709 13.2969 6.24973 15.2413L6.23689 15.3175L6.29159 15.3722L8.69589 17.7765L8.74783 17.8285L8.82072 17.8193C10.7631 17.5744 12.5897 16.7604 14.0705 15.4797ZM16.7339 5.96629V5.96627C16.9112 5.96626 17.0868 6.00116 17.2506 6.069C17.4143 6.13684 17.5632 6.23628 17.6885 6.36164C17.8139 6.48701 17.9134 6.63583 17.9812 6.79963C18.049 6.96343 18.0839 7.13898 18.0839 7.31628C18.0839 7.58329 18.0048 7.8443 17.8564 8.06631C17.7081 8.28831 17.4972 8.46135 17.2506 8.56352C17.0039 8.6657 16.7324 8.69244 16.4706 8.64035C16.2087 8.58826 15.9681 8.45968 15.7793 8.27088C15.5905 8.08208 15.462 7.84153 15.4099 7.57966C15.3578 7.31778 15.3845 7.04634 15.4867 6.79966C15.5889 6.55298 15.7619 6.34214 15.9839 6.1938C16.2059 6.04546 16.4669 5.96629 16.7339 5.96629Z" fill="#C1C35D" stroke="white" stroke-width="0.3"/>
</svg>
